<svg height="1385pt" viewBox="0 0 1449 1385" width="1932" xmlns="http://www.w3.org/2000/svg"><g fill="#a18a5c"><path d="m167.79 197.25c263.42.04 526.83.01 790.25.02 97.5.06 195.01-.14 292.51.1-.04 2.04-.05 4.08-.04 6.12-141.83-.19-283.66-.01-425.5-.07-12.35.1-24.72-.3-37.07.4-27.66.08-55.32.02-82.98.03-5.31.12-10.61.77-15.92.58-131.66-.01-263.32-.02-394.98-.02-41.89-.08-83.79.16-125.68-.12-1.08-2.21-.53-4.69-.59-7.04z"/><path d="m775.96 204.15c10.68.37 21.32-.95 32-.58 147.49-.05 294.98.15 442.47-.07.1 3.65.1 7.31 0 10.97-145.15-.13-290.3 0-435.45-.07-215.71.06-431.42-.05-647.14.07.05-3.29-.52-6.74.34-9.91 173.95.06 347.89.01 521.83.03 28.64-.88 57.3-.25 85.95-.44z"/><path d="m167.74 214.47c109.09.25 218.17.02 327.26.13 198.67-.05 397.34 0 596.01-.01 53.17-.08 106.34.15 159.52-.12-.04 3.44-.04 6.89-.02 10.33-77.18.1-154.35.03-231.53.07-18 .23-36.03-.53-54.01.53-265.6.04-531.19-.02-796.78.03-.89-3.52-.24-7.32-.45-10.96z"/><path d="m168.39 225.71c135.53-.29 271.08-.03 406.62-.13 111 .02 222 .01 333 0 23-.14 46.02.4 69.02-.43 91.16.05 182.32-.08 273.47.03-.01 3.77-.01 7.55.03 11.32-94.49-.2-188.97-.03-283.45-.09-22.71.24-45.44-.45-68.13.45-52.31-.03-104.62 0-156.93 0-16.68.19-33.39-.49-50.04.56-174.72.04-349.43-.1-524.14.06.17-3.91-.78-8.02.55-11.77z"/><path d="m900.07 237.14c19.63-1.15 39.32-.28 58.98-.55 97.14-.08 194.29.13 291.44-.08.01.63.03 1.9.04 2.54-.05 2.77-.23 5.55-.23 8.32-305.08.1-610.17 0-915.26.06-8.7.12-17.36-.95-26.07-.56-46.96-.08-93.93.14-140.9-.11-.06-2.65-.22-5.29-.37-7.93l-.08-1.35c60.78.26 121.57.02 182.35.12 114.02-.04 228.05.01 342.08-.03 11.29-.64 22.61-.36 33.92-.42 58.03 0 116.07-.01 174.1-.01z"/><path d="m168.07 247.25c49.3-.23 98.61-.01 147.92-.11 6.66-.07 13.31.67 19.98.44 304.78.01 609.56 0 914.33.02.09 3.39-.05 6.78-.23 10.17-89.03.17-178.06.05-267.09.09-8.7-.3-17.35.89-26.04.55-263.01.02-526.02-.03-789.03.03-.09-3.74-.02-7.47.16-11.19z"/><path d="m167.91 258.65c236.69-.15 473.38-.02 710.07-.06 34.02-.18 68.06.42 102.07-.44 90.01.07 180.03-.12 270.04.06.07.85.2 2.55.27 3.4.12 2.27.17 4.54.14 6.81-360.91-.02-721.83-.01-1082.75 0 .01-2.12.03-4.25.09-6.37.01-.85.05-2.55.07-3.4z"/><path d="m167.75 268.65c227.76-.15 455.52 0 683.28-.08 133.16.08 266.31-.07 399.47.08-.04 3.19-.02 6.39.18 9.59-360.94.08-721.9-.05-1082.84.07-.08-3.22-.09-6.44-.09-9.66z"/><path d="m167.83 278.66c360.95.19 721.9-.02 1082.83.1-.59 3.48.69 7.32-1.01 10.53-188.53.28-377.07.04-565.6.12-15.67.2-31.36-.41-47.02.41-132.66.02-265.33.03-398 .05-23.74.08-47.5-.16-71.24.14-.04-3.79-.07-7.57.04-11.35z"/><path d="m635.95 290.11c18.32-1.06 36.68-.27 55.02-.53 186.3-.01 372.6.06 558.89-.04 1.36 3.59.37 7.99.56 11.92-28.48-.29-56.97.24-85.43-.05-332.28.02-664.55-.04-996.83.03-.85-3.69-.23-7.61-.36-11.4 44.38.3 88.77.03 133.15.11 111.67-.01 223.33-.02 335-.04z"/><path d="m168.37 301.54c331.54.13 663.09-.01 994.63.06 8.36-.37 16.71.73 25.06.04 20.82-.18 41.65.11 62.47-.18-.04 3.31.03 6.62-.18 9.92-124.77-.26-249.57-.03-374.35-.11-178.66.01-357.34.01-535.99 0-6 .8-11.99-.34-18.01 0-51.49-.04-102.99.08-154.48-.06.56-3.17-.31-6.73.85-9.67z"/><path d="m167.5 311.78c360.94-.14 721.89.06 1082.83-.1.2 3.64.2 7.29.19 10.94-15.61.06-31.22.17-46.83.08-324.89-.16-649.78 0-974.67-.12-9.42.15-18.84-.35-28.25.1-10.98.06-21.96-.03-32.94.05-.02-3.66-.02-7.31-.33-10.95z"/></g><path d="m689.04 204.43c5.31.19 10.61-.46 15.92-.58 27.66-.01 55.32.05 82.98-.03 12.35-.7 24.72-.3 37.07-.4 141.84.06 283.67-.12 425.5.07l-.08.01c-147.49.22-294.98.02-442.47.07-10.68-.37-21.32.95-32 .58-28.65.19-57.31-.44-85.95.44-173.94-.02-347.88.03-521.83-.03l.2-.27c41.89.28 83.79.04 125.68.12 131.66 0 263.32.01 394.98.02z"/><path d="m167.84 214.47c215.72-.12 431.43-.01 647.14-.07 145.15.07 290.3-.06 435.45.07h.1c-53.18.27-106.35.04-159.52.12-198.67.01-397.34-.04-596.01.01-109.09-.11-218.17.12-327.26-.13z"/><path d="m964.97 225.4c17.98-1.06 36.01-.3 54.01-.53 77.18-.04 154.35.03 231.53-.07 0 .1-.01.29-.01.38-91.15-.11-182.31.02-273.47-.03-23 .83-46.02.29-69.02.43-111 .01-222 .02-333 0-135.54.1-271.09-.16-406.62.13l-.2-.28c265.59-.05 531.18.01 796.78-.03z"/><path d="m691.98 237.42c16.65-1.05 33.36-.37 50.04-.56 52.31 0 104.62-.03 156.93 0 22.69-.9 45.42-.21 68.13-.45 94.48.06 188.96-.11 283.45.09l-.04.01c-97.15.21-194.3 0-291.44.08-19.66.27-39.35-.6-58.98.55-58.03 0-116.07.01-174.1.01-11.31.06-22.63-.22-33.92.42-114.03.04-228.06-.01-342.08.03-60.78-.1-121.57.14-182.35-.12h.22c174.71-.16 349.42-.02 524.14-.06z"/><path d="m168.07 246.76c46.97.25 93.94.03 140.9.11 8.71-.39 17.37.68 26.07.56 305.09-.06 610.18.04 915.26-.06v.23c-304.77-.02-609.55-.01-914.33-.02-6.67.23-13.32-.51-19.98-.44-49.31.1-98.62-.12-147.92.11 0-.13 0-.37 0-.49z"/><path d="m956.94 258.41c8.69.34 17.34-.85 26.04-.55 89.03-.04 178.06.08 267.09-.09.01.11.02.33.02.44-90.01-.18-180.03.01-270.04-.06-34.01.86-68.05.26-102.07.44-236.69.04-473.38-.09-710.07.06v-.21c263.01-.06 526.02-.01 789.03-.03z"/><path d="m167.75 268.42c360.92-.01 721.84-.02 1082.75 0v.23c-133.16-.15-266.31 0-399.47-.08-227.76.08-455.52-.07-683.28.08z"/><path d="m167.79 290.01c23.74-.3 47.5-.06 71.24-.14 132.67-.02 265.34-.03 398-.05 15.66-.82 31.35-.21 47.02-.41 188.53-.08 377.07.16 565.6-.12l.21.25c-186.29.1-372.59.03-558.89.04-18.34.26-36.7-.53-55.02.53-111.67.02-223.33.03-335 .04-44.38-.08-88.77.19-133.15-.11l-.46-.02z"/><path d="m168.16 301.44c332.28-.07 664.55-.01 996.83-.03 28.46.29 56.95-.24 85.43.05h.11c-20.82.29-41.65 0-62.47.18-8.35.69-16.7-.41-25.06-.04-331.54-.07-663.09.07-994.63-.06z"/><path d="m124.41 369.99c6.95.1 13.9.19 20.86.25v51c-6.96-.06-13.91-.16-20.86-.24 0-17 0-34 0-51.01z"/><path d="m1273.73 369.77c6.95.08 13.9.17 20.86.25-.01 17 0 34-.01 51-6.95-.08-13.9-.17-20.85-.24 0-17 0-34.01 0-51.01z"/><path d="m516.88 511.43c-1.43-3.02-.18-6.74-.01-10.01 3.31-.18 6.66.12 9.8 1.25-.31 2.71-.62 5.43-.98 8.14-2.94.22-5.87.58-8.81.62z"/><path d="m530.13 511.86c-.32-3.41-.12-6.84.56-10.19 3.23.05 6.48.32 9.59 1.23-.31 2.76-.24 5.64-1.13 8.31-3 .4-6.02.44-9.02.65z"/><path d="m400.56 517.59c6.69-3.52 14.47-2.07 21.56-.86 4.29.49 7.77 3.23 11.68 4.79-.34 4.54-3.11 8.42-3.62 12.95 0 2.41-2.81 1.68-4.31 1.34-4.58-1.41-8.96-4.02-13.91-3.74-.48 1.68-.86 3.39-1.27 5.1 5.95 3.65 14.01 1.8 19.29 6.86 3.47 3.73 5.44 8.88 4.97 14.01.16 4.41-.43 9.87-4.78 12.2-8.78 6.28-20.12 6.08-30.3 4.28-3.69-.48-7.41-1.02-10.86-2.46-.2-5.91 1.31-11.69 2.61-17.4 4.36.01 8.81.19 12.87 1.98 3.73 1.63 7.83 1.22 11.68.29-.38-1.37-.77-2.71-1.17-4.06-7.35-.04-14.44-2.72-20.9-6-4.5-2.06-5.05-7.52-4.49-11.85.23-7.16 4.05-14.67 10.95-17.43z"/><path d="m439.25 517.91c.09-1.89 2.4-1.56 3.72-1.82 3.68-.13 7.35.45 11.03.64 13.62 1 27.41-1.24 40.94 1.03-.41 7.05-.05 14.12-.7 21.15-6.48-.56-13.08.82-19.46-.74-.23 12.52.45 25.09-.45 37.57-7.13-.45-14.26-.62-21.38-.07-1.6-13.19.08-26.44.5-39.64-4.97-.4-9.87.89-14.83.41-.15-6.18.1-12.38.63-18.53z"/><path d="m516.51 517.64c8.01-1.67 16.17-.3 23.98 1.76 7.09 1.8 13.35 7.46 15.22 14.63 1.14 3.87 2.15 7.87 1.76 11.95-.58 7.09-1.57 14.64-6.21 20.37-3.83 4.29-8.38 8.35-14.18 9.56-9.66 1.73-19.77-.66-28.06-5.8-7.2-5.29-11.69-14.12-11.33-23.09-.37-8.31 3.51-16.27 8.97-22.33 2.29-3.5 6.09-5.51 9.85-7.05m6.7 16.56c-7.88 2.29-11.25 14.1-4.97 19.68 4.31 2.38 10.18 3.98 14.57.95 2.23-1.35 4.37-3.26 4.99-5.91.98-3.95 1.73-8.99-1.72-11.99-3.26-3.53-8.48-3.74-12.87-2.73z"/><path d="m562.81 517.11c7.1-.34 14.2.38 21.3.56 8.2.91 17.41 1.34 23.59 7.57 6.72 6.64 7.32 16.81 6.53 25.68-1.5 7.54-5.15 15.14-11.66 19.57-5.6 3.49-11.72 6.21-18.15 7.71-7.05 1.1-14.19 1.4-21.31 1.52-.71-20.85-.13-41.74-.3-62.61m18.01 16.69c.64 9.11.19 18.25.33 27.38 3.27-.73 6.93-1 9.43-3.5 5.45-4.32 8.39-12.78 4.71-19.08-3.43-4.28-9.47-4.42-14.47-4.8z"/><path d="m657.61 579.27c7.88-19.87 14.79-40.14 22.29-60.17 7.34-.02 14.69-.16 22.03.39 4.98 17.97 9.5 36.06 14.36 54.07.66 2.39 1.23 4.82 1.34 7.33-7.17-.38-14.42-.17-21.54-1.13-1.29-5.21-.57-10.78-1.1-16.12-3.88-.06-7.75-.15-11.62-.14-1.55 5.46-3.63 10.77-4.87 16.32-6.96-.26-13.94.01-20.89-.55m28.36-31.06c2.58-.08 5.15-.23 7.73-.35-.59-4.81-1.1-9.68-2.85-14.23-1.76 4.81-3.26 9.71-4.88 14.58z"/><path d="m750.46 520.47c5.15-.78 10.36-1.11 15.56-1.41 2.28-.27 4.87 1.54 4.94 3.94.61 6.66.65 13.37 1.07 20.05 1.26 0 2.54.01 3.82.02 2.95-7.52 6.02-15 8.96-22.52 5.01-1.06 10.14-.57 15.22-.56 2.51.03 5.09-.13 7.51.75-4.38 9.34-10.05 18-14.95 27.06 3.76 9.06 7.43 18.16 11.2 27.22 1.18 2.75 1.93 5.68 2.46 8.64-8.11-.48-16.23-.97-24.36-.64-1.09-1.07-1.5-2.6-1.93-4-1.71-6.32-2.99-12.76-4.79-19.05-.54-.04-1.63-.11-2.17-.14-.02 7.49.04 14.99-.04 22.5-6.85 1.43-13.99.64-20.96.81-.47-20.89-1.32-41.77-1.54-62.67z"/><path d="m726.45 520.44c6.19.51 12.46.37 18.61 1.35-.7 20.05-2.85 40.04-4.29 60.05-6.51-.03-13.03.04-19.52-.46-.67-12.52 1.02-24.98 1.79-37.46.43-7.91 1.83-15.72 3.41-23.48z"/><path d="m837.3 523.25c3.16-1.87 7.13-.7 10.63-.64 14.9 1.63 30.02-1.06 44.85 1.31-.38 7.05-.13 14.12-.65 21.16-6.51-.5-13.1.76-19.52-.7-.24 12.5.47 25.07-.46 37.53-7.08-.4-14.18-.71-21.26.01-1.85-13.18.03-26.46.41-39.66-4.97-.51-9.89.87-14.85.34-.04-6.44-.08-12.97.85-19.35z"/><path d="m923.53 523.05c14.74-.24 29.49.23 44.24.26.32 6.52.21 13.06-.09 19.59-7.41.38-14.84.21-22.25.37.18 3.08.28 6.19.69 9.26 3.48-.08 7.09-.49 10.48.6.07 4.61.02 9.22.06 13.84-3.43 1.4-7.19 1.08-10.79 1.2.25 5.65 2.24 11.06 2.44 16.69-7.97.14-15.92.62-23.89.66-1.43-14.11-1.69-28.29-1.48-42.47-.07-6.67-.06-13.35.59-20z"/><path d="m899.07 523.13c6.17.45 12.39.45 18.55 1.28-.04 13.21-1.81 26.34-2.59 39.52-.6 6.88-.93 13.79-1.71 20.66-6.5-.18-13.02.03-19.49-.56-.58-13.02 1.14-25.97 1.94-38.94.46-7.41 1.85-14.7 3.3-21.96z"/><path d="m993.08 524.23c5.5-.36 10.97 1.01 16.32 2.15 5.86 1.24 11.05 4.95 14.27 9.99 5.16 9.4 4.49 20.73 1.38 30.68-2.29 5.94-6.97 10.59-12.24 13.98-5.73 3.36-12.54 2.92-18.87 2.19-4.75-.65-9.08-2.86-13.36-4.86-12.76-7.59-16.49-25.65-9.44-38.36 3.2-5.74 7.31-11.64 13.58-14.28 2.55-1.42 5.56-1.05 8.36-1.49m.34 17.21c-8.11 2.22-11.54 14.39-4.93 19.94 4.57 2.3 10.68 3.82 15.06.29 4.97-2.85 5.69-9.48 4.61-14.54-2.46-5.59-9.28-7.16-14.74-5.69z"/><path d="m803.99 547.5c11.58-.06 23.16.34 34.73.75.45 3.73.13 7.52-.64 11.19-11.08.12-22.17-.38-33.25-.55-.32-3.8-.82-7.58-.84-11.39z"/><path d="m124.49 299.93c.74-26.55 18.54-51.43 43.21-61.1.15 2.64.31 5.28.37 7.93v.49c-.18 3.72-.25 7.45-.16 11.19v.21c-.02.85-.06 2.55-.07 3.4-13.51 8.51-22.44 23.89-22.54 39.93-.08 22.75-.01 45.51-.03 68.26-6.96-.06-13.91-.15-20.86-.25.05-23.35-.1-46.71.08-70.06z" fill="#868484"/><path d="m1250.53 239.05.02-.56c22.06 8.5 39.06 28.92 42.98 52.29 1.83 10.65.78 21.51 1.06 32.26v46.98c-6.96-.08-13.91-.17-20.86-.25-.04-22.91.09-45.83-.06-68.74-.43-15.98-9.59-31.27-23.31-39.42-.07-.85-.2-2.55-.27-3.4 0-.11-.01-.33-.02-.44.18-3.39.32-6.78.23-10.17v-.23c0-2.77.18-5.55.23-8.32z" fill="#868484"/><path d="m125.67 463.02c7 .07 13.99.21 20.99.21 1.63 22.71 4.59 45.33 8.97 67.67 14.02 72.33 42.73 141.61 83.07 203.2.77 13.41 1.62 26.82 2.27 40.25-18.47-23.99-34.5-49.82-48.8-76.48-38.59-72.35-61.28-153.04-66.5-234.85z" fill="#868484"/><path d="m1205.26 692.29c38.37-70.57 61.59-149.38 67.11-229.54 6.98.09 13.97.17 20.96.26-5.24 82.02-28.03 162.91-66.79 235.41-14.41 27.07-31.03 52.95-49.43 77.48.96-15.69 1.78-31.38 2.73-47.07-.08 1.88-.12 3.77-.12 5.67 9.38-13.51 17.59-27.81 25.54-42.21z" fill="#868484"/><path d="m200.77 322.68c9.41-.45 18.83.05 28.25-.1 324.89.12 649.78-.04 974.67.12-7.94 135.38-15.83 270.76-23.85 406.13-.95 15.69-1.77 31.38-2.73 47.07-8.07 137.41-16.1 274.82-24.2 412.22-1.38 18.99-11.04 37-25.5 49.25-12.81 11-29.51 17.47-46.43 17.43-241.34.01-482.67 0-724 0-10.35-.26-20.79.7-31.05-.94-27.16-4.37-50.67-25.52-58.09-51.97-2.88-9.38-2.68-19.28-3.38-28.96-7.86-132.86-15.44-265.74-23.49-398.58-.65-13.43-1.5-26.84-2.27-40.25-8.01-137.13-16.09-274.26-24.12-411.38-4.61-.02-9.21 0-13.81-.04m77.21 123.46c-.11 6.92-.46 13.82-.72 20.74 6.83.42 13.68.45 20.52.14.18-1.29.36-2.58.55-3.86 8.28.02 16.61-.49 24.86.41-8.2.06-16.4-.12-24.6 0-.01 49.46-.02 98.93.02 148.4-.21 4.45-.26 8.91.05 13.36 1.83.14 3.67.37 5.52.39-2.01.02-4.02.11-6.02.17-.28-4.6-.11-9.2-.29-13.8-2.68.08-5.76-.86-8.17.57-1.89 6.2-3.42 12.52-5.14 18.78 6.38 1.28 12.93.33 19.39.76 15.32 1.17 30.71.57 46.06 1.11 10.98.97 22 .43 33 .79 8.03-.3 16.01.97 24.05.78 12.3.31 24.63-.16 36.91.86 14.68.47 29.39-.09 44.04 1.06 11.33.19 22.66.2 33.98.42 15.3 1.1 30.64.57 45.96 1.08 11.64.95 23.33.45 35 .81 7.36-.11 14.68.94 22.05.76 12.33.25 24.68-.05 36.99.88 11.32.24 22.65.32 33.97.47 14.66 1 29.38.64 44.07.97 15.31 1.12 30.67.64 46 1.08 16.63 1.37 33.37.1 50 1.48 15 .5 30.03-.15 45 1.06 10.98.1 21.96.26 32.94.38 12.66 1.07 25.37.58 38.06.96 6.69-.34 13.33.86 20.02.72 6.84-.02 13.68.32 20.53.04-.77-6.28-1.74-12.53-2.41-18.81 3.05-.12 6.13-.3 9.14-.94 15.24-.23 30.48-.76 45.72-1.1 5.45-.08 10.87-1.29 16.32-.57-.56.23-1.69.7-2.26.93 18.42.16 36.82 1.63 55.21 2.57-.6-1.68-1.19-3.35-1.75-5.02 3.65-.11 7.3-.35 10.96-.48 2.66-22.73 2.97-45.65 3.93-68.5.38-25.05.53-50.11.58-75.16 7.33-.13 14.66.19 22 0 .04-6.91.55-13.78.79-20.68-7.93-.64-15.89.09-23.8-.8-23.32-.61-46.68-.01-69.98-1.16-17.03-.15-34.05-.29-51.07-.41-12.66-.96-25.36-.52-38.04-.83-19.67.2-39.29-1.08-58.96-.93-13.31-.36-26.64.26-39.92-.82-18.01-.14-36.02-.24-54.03-.44-24.96-1.47-50.01-.07-74.96-1.57-17.01-.1-34.02-.25-51.03-.41-25.67-1.39-51.42-.19-77.08-1.59-21.31-.33-42.64.12-63.93-1.01-16.69-.04-33.37-.36-50.06-.36-25.59-1.61-51.29-.04-76.88-1.68-16.69-.03-33.38-.26-50.07-.31-22.63-1.2-45.33-.62-67.98-1.13-8.33-.77-16.7-.49-25.04-.56z" fill="#c5c5c5"/><path d="m124.41 421c6.95.08 13.9.18 20.86.24-.03 14.01.44 28.01 1.39 41.99-7 0-13.99-.14-20.99-.21-.9-13.99-1.32-28-1.26-42.02z" fill="#fd0"/><path d="m1273.73 420.78c6.95.07 13.9.16 20.85.24.07 14-.35 28.01-1.25 41.99-6.99-.09-13.98-.17-20.96-.26.94-13.97 1.4-27.97 1.36-41.97z" fill="#fd0"/><path d="m277.98 446.14c8.34.07 16.71-.21 25.04.56 22.65.51 45.35-.07 67.98 1.13 16.69.05 33.38.28 50.07.31 25.59 1.64 51.29.07 76.88 1.68 16.69 0 33.37.32 50.06.36 21.29 1.13 42.62.68 63.93 1.01 25.66 1.4 51.41.2 77.08 1.59 17.01.16 34.02.31 51.03.41 24.95 1.5 50 .1 74.96 1.57 18.01.2 36.02.3 54.03.44 13.28 1.08 26.61.46 39.92.82 19.67-.15 39.29 1.13 58.96.93 12.68.31 25.38-.13 38.04.83 17.02.12 34.04.26 51.07.41 23.3 1.15 46.66.55 69.98 1.16 7.91.89 15.87.16 23.8.8-.24 6.9-.75 13.77-.79 20.68-7.34.19-14.67-.13-22 0-.06-1.55-.12-3.08-.16-4.61-95.31-1.44-190.61-3.07-285.92-4.36-26.98-.81-53.97-.58-80.95-1.44-16.01-.05-32.02-.44-48.04-.54-25.51-.83-51.05-.6-76.56-1.31-93.79-1.4-187.58-2.93-281.36-4.33-10.61-.29-21.24-.08-31.84-.67-8.25-.9-16.58-.39-24.86-.41-.19 1.28-.37 2.57-.55 3.86-6.84.31-13.69.28-20.52-.14.26-6.92.61-13.82.72-20.74z" fill="#d4d4d4"/><path d="m289.7 612.66c2.41-1.43 5.49-.49 8.17-.57.18 4.6.01 9.2.29 13.8 2-.06 4.01-.15 6.02-.17 23.62.03 47.23.75 70.84.69 23.67.78 47.37.92 71.05 1.05 12.95.68 25.93.37 38.89.84 8.66.49 17.34.23 26.01.34 15.68.1 31.35.37 47.03.47 23.99.83 48 .4 72 .73 52.99.6 105.99.57 158.99.54 34.69.04 69.38-.1 104.07-.51 24.16-.23 48.32-.19 72.47-1.15 11.27.92 22.52-.87 33.78-.56-3.01.64-6.09.82-9.14.94.67 6.28 1.64 12.53 2.41 18.81-6.85.28-13.69-.06-20.53-.04-6.69.14-13.33-1.06-20.02-.72-12.69-.38-25.4.11-38.06-.96-10.98-.12-21.96-.28-32.94-.38-14.97-1.21-30-.56-45-1.06-16.63-1.38-33.37-.11-50-1.48-15.33-.44-30.69.04-46-1.08-14.69-.33-29.41.03-44.07-.97-11.32-.15-22.65-.23-33.97-.47-12.31-.93-24.66-.63-36.99-.88-7.37.18-14.69-.87-22.05-.76-11.67-.36-23.36.14-35-.81-15.32-.51-30.66.02-45.96-1.08-11.32-.22-22.65-.23-33.98-.42-14.65-1.15-29.36-.59-44.04-1.06-12.28-1.02-24.61-.55-36.91-.86-8.04.19-16.02-1.08-24.05-.78-11-.36-22.02.18-33-.79-15.35-.54-30.74.06-46.06-1.11-6.46-.43-13.01.52-19.39-.76 1.72-6.26 3.25-12.58 5.14-18.78z" fill="#d4d4d4"/><g fill="#f5ecdb"><path d="m298.59 463.57c8.2-.12 16.4.06 24.6 0 10.6.59 21.23.38 31.84.67 93.78 1.4 187.57 2.93 281.36 4.33 25.51.71 51.05.48 76.56 1.31 16.02.1 32.03.49 48.04.54 26.98.86 53.97.63 80.95 1.44 95.31 1.29 190.61 2.92 285.92 4.36.04 1.53.1 3.06.16 4.61-.05 25.05-.2 50.11-.58 75.16-.96 22.85-1.27 45.77-3.93 68.5-3.66.13-7.31.37-10.96.48-17.07.37-34.13 1.27-51.2 1.52-5.45-.72-10.87.49-16.32.57-15.24.34-30.48.87-45.72 1.1-11.26-.31-22.51 1.48-33.78.56 5.47-1.21 11.09-.73 16.65-1.2-13.68-1.26-27.47.01-41.18-.75-14.28-1.6-28.68-.35-43-.91-14.59-1.71-29.32-.39-43.97-1.01-14.95-1.61-30.02-.36-45.01-.99-17.26-2.04-34.72.31-51.98-1.72-12.02-.33-24.05-.02-36.06-.28-17.27-2.01-34.72.29-51.99-1.71-11.98-.43-23.98.14-35.96-.3-17.28-2.01-34.76.29-52.05-1.72-11.96-.36-23.93.12-35.89-.24-14.99-1.86-30.12-.27-45.16-1.11-11.6-1.37-23.3-.52-34.95-.79-8.36.42-16.62-1.33-24.97-.95-11.65-.3-23.37.59-34.97-.85-15-.72-30.07.65-45.03-1.02-12.32-.44-24.67.1-36.98-.36-8.11-1.03-16.28-.8-24.42-.84-.04-49.47-.03-98.94-.02-148.4m218.29 47.86c2.94-.04 5.87-.4 8.81-.62.36-2.71.67-5.43.98-8.14-3.14-1.13-6.49-1.43-9.8-1.25-.17 3.27-1.42 6.99.01 10.01m13.25.43c3-.21 6.02-.25 9.02-.65.89-2.67.82-5.55 1.13-8.31-3.11-.91-6.36-1.18-9.59-1.23-.68 3.35-.88 6.78-.56 10.19m-129.57 5.73c-6.9 2.76-10.72 10.27-10.95 17.43-.56 4.33-.01 9.79 4.49 11.85 6.46 3.28 13.55 5.96 20.9 6 .4 1.35.79 2.69 1.17 4.06-3.85.93-7.95 1.34-11.68-.29-4.06-1.79-8.51-1.97-12.87-1.98-1.3 5.71-2.81 11.49-2.61 17.4 3.45 1.44 7.17 1.98 10.86 2.46 10.18 1.8 21.52 2 30.3-4.28 4.35-2.33 4.94-7.79 4.78-12.2.47-5.13-1.5-10.28-4.97-14.01-5.28-5.06-13.34-3.21-19.29-6.86.41-1.71.79-3.42 1.27-5.1 4.95-.28 9.33 2.33 13.91 3.74 1.5.34 4.31 1.07 4.31-1.34.51-4.53 3.28-8.41 3.62-12.95-3.91-1.56-7.39-4.3-11.68-4.79-7.09-1.21-14.87-2.66-21.56.86m38.69.32c-.53 6.15-.78 12.35-.63 18.53 4.96.48 9.86-.81 14.83-.41-.42 13.2-2.1 26.45-.5 39.64 7.12-.55 14.25-.38 21.38.07.9-12.48.22-25.05.45-37.57 6.38 1.56 12.98.18 19.46.74.65-7.03.29-14.1.7-21.15-13.53-2.27-27.32-.03-40.94-1.03-3.68-.19-7.35-.77-11.03-.64-1.32.26-3.63-.07-3.72 1.82m77.26-.27c-3.76 1.54-7.56 3.55-9.85 7.05-5.46 6.06-9.34 14.02-8.97 22.33-.36 8.97 4.13 17.8 11.33 23.09 8.29 5.14 18.4 7.53 28.06 5.8 5.8-1.21 10.35-5.27 14.18-9.56 4.64-5.73 5.63-13.28 6.21-20.37.39-4.08-.62-8.08-1.76-11.95-1.87-7.17-8.13-12.83-15.22-14.63-7.81-2.06-15.97-3.43-23.98-1.76m46.3-.53c.17 20.87-.41 41.76.3 62.61 7.12-.12 14.26-.42 21.31-1.52 6.43-1.5 12.55-4.22 18.15-7.71 6.51-4.43 10.16-12.03 11.66-19.57.79-8.87.19-19.04-6.53-25.68-6.18-6.23-15.39-6.66-23.59-7.57-7.1-.18-14.2-.9-21.3-.56m94.8 62.16c6.95.56 13.93.29 20.89.55 1.24-5.55 3.32-10.86 4.87-16.32 3.87-.01 7.74.08 11.62.14.53 5.34-.19 10.91 1.1 16.12 7.12.96 14.37.75 21.54 1.13-.11-2.51-.68-4.94-1.34-7.33-4.86-18.01-9.38-36.1-14.36-54.07-7.34-.55-14.69-.41-22.03-.39-7.5 20.03-14.41 40.3-22.29 60.17m92.85-58.8c.22 20.9 1.07 41.78 1.54 62.67 6.97-.17 14.11.62 20.96-.81.08-7.51.02-15.01.04-22.5.54.03 1.63.1 2.17.14 1.8 6.29 3.08 12.73 4.79 19.05.43 1.4.84 2.93 1.93 4 8.13-.33 16.25.16 24.36.64-.53-2.96-1.28-5.89-2.46-8.64-3.77-9.06-7.44-18.16-11.2-27.22 4.9-9.06 10.57-17.72 14.95-27.06-2.42-.88-5-.72-7.51-.75-5.08-.01-10.21-.5-15.22.56-2.94 7.52-6.01 15-8.96 22.52-1.28-.01-2.56-.02-3.82-.02-.42-6.68-.46-13.39-1.07-20.05-.07-2.4-2.66-4.21-4.94-3.94-5.2.3-10.41.63-15.56 1.41m-24.01-.03c-1.58 7.76-2.98 15.57-3.41 23.48-.77 12.48-2.46 24.94-1.79 37.46 6.49.5 13.01.43 19.52.46 1.44-20.01 3.59-40 4.29-60.05-6.15-.98-12.42-.84-18.61-1.35m110.85 2.81c-.93 6.38-.89 12.91-.85 19.35 4.96.53 9.88-.85 14.85-.34-.38 13.2-2.26 26.48-.41 39.66 7.08-.72 14.18-.41 21.26-.01.93-12.46.22-25.03.46-37.53 6.42 1.46 13.01.2 19.52.7.52-7.04.27-14.11.65-21.16-14.83-2.37-29.95.32-44.85-1.31-3.5-.06-7.47-1.23-10.63.64m86.23-.2c-.65 6.65-.66 13.33-.59 20-.21 14.18.05 28.36 1.48 42.47 7.97-.04 15.92-.52 23.89-.66-.2-5.63-2.19-11.04-2.44-16.69 3.6-.12 7.36.2 10.79-1.2-.04-4.62.01-9.23-.06-13.84-3.39-1.09-7-.68-10.48-.6-.41-3.07-.51-6.18-.69-9.26 7.41-.16 14.84.01 22.25-.37.3-6.53.41-13.07.09-19.59-14.75-.03-29.5-.5-44.24-.26m-24.46.08c-1.45 7.26-2.84 14.55-3.3 21.96-.8 12.97-2.52 25.92-1.94 38.94 6.47.59 12.99.38 19.49.56.78-6.87 1.11-13.78 1.71-20.66.78-13.18 2.55-26.31 2.59-39.52-6.16-.83-12.38-.83-18.55-1.28m94.01 1.1c-2.8.44-5.81.07-8.36 1.49-6.27 2.64-10.38 8.54-13.58 14.28-7.05 12.71-3.32 30.77 9.44 38.36 4.28 2 8.61 4.21 13.36 4.86 6.33.73 13.14 1.17 18.87-2.19 5.27-3.39 9.95-8.04 12.24-13.98 3.11-9.95 3.78-21.28-1.38-30.68-3.22-5.04-8.41-8.75-14.27-9.99-5.35-1.14-10.82-2.51-16.32-2.15m-189.09 23.27c.02 3.81.52 7.59.84 11.39 11.08.17 22.17.67 33.25.55.77-3.67 1.09-7.46.64-11.19-11.57-.41-23.15-.81-34.73-.75z"/><path d="m523.21 534.2c4.39-1.01 9.61-.8 12.87 2.73 3.45 3 2.7 8.04 1.72 11.99-.62 2.65-2.76 4.56-4.99 5.91-4.39 3.03-10.26 1.43-14.57-.95-6.28-5.58-2.91-17.39 4.97-19.68z"/><path d="m580.82 533.8c5 .38 11.04.52 14.47 4.8 3.68 6.3.74 14.76-4.71 19.08-2.5 2.5-6.16 2.77-9.43 3.5-.14-9.13.31-18.27-.33-27.38z"/><path d="m685.97 548.21c1.62-4.87 3.12-9.77 4.88-14.58 1.75 4.55 2.26 9.42 2.85 14.23-2.58.12-5.15.27-7.73.35z"/><path d="m993.42 541.44c5.46-1.47 12.28.1 14.74 5.69 1.08 5.06.36 11.69-4.61 14.54-4.38 3.53-10.49 2.01-15.06-.29-6.61-5.55-3.18-17.72 4.93-19.94z"/></g><path d="m298.61 611.97c8.14.04 16.31-.19 24.42.84 12.31.46 24.66-.08 36.98.36 14.96 1.67 30.03.3 45.03 1.02 11.6 1.44 23.32.55 34.97.85 8.35-.38 16.61 1.37 24.97.95 11.65.27 23.35-.58 34.95.79 15.04.84 30.17-.75 45.16 1.11 11.96.36 23.93-.12 35.89.24 17.29 2.01 34.77-.29 52.05 1.72 11.98.44 23.98-.13 35.96.3 17.27 2 34.72-.3 51.99 1.71 12.01.26 24.04-.05 36.06.28 17.26 2.03 34.72-.32 51.98 1.72 14.99.63 30.06-.62 45.01.99 14.65.62 29.38-.7 43.97 1.01 14.32.56 28.72-.69 43 .91 13.71.76 27.5-.51 41.18.75-5.56.47-11.18-.01-16.65 1.2-24.15.96-48.31.92-72.47 1.15-34.69.41-69.38.55-104.07.51-53 .03-106 .06-158.99-.54-24-.33-48.01.1-72-.73-15.68-.1-31.35-.37-47.03-.47-8.67-.11-17.35.15-26.01-.34-12.96-.47-25.94-.16-38.89-.84-23.68-.13-47.38-.27-71.05-1.05-23.61.06-47.22-.66-70.84-.69-1.85-.02-3.69-.25-5.52-.39-.31-4.45-.26-8.91-.05-13.36z" fill="#f8f1e4"/><path d="m1061.35 626.49c17.07-.25 34.13-1.15 51.2-1.52.56 1.67 1.15 3.34 1.75 5.02-18.39-.94-36.79-2.41-55.21-2.57.57-.23 1.7-.7 2.26-.93z" fill="#727272"/></svg>